<?xml version="1.0" encoding="UTF-8"?>
<svg width="32" height="32" version="1.1" viewBox="0 0 32 32" xmlns="http://www.w3.org/2000/svg">
  <path d="m16 0c-8.8226 0-16 7.1778-16 16 0 8.8226 7.1778 16 16 16 8.8226 0 16-7.1778 16-16 0-8.8226-7.1778-16-16-16zm0 28.8c-7.0576 0-12.8-5.7423-12.8-12.8 0-7.0576 5.7423-12.8 12.8-12.8 7.0576 0 12.8 5.7423 12.8 12.8 0 7.0576-5.7423 12.8-12.8 12.8z" style="fill:#f00;stroke-width:4"/>
  <path d="m11.475 22.787 4.5248-4.5248 4.5248 4.5248 2.2624-2.2624-4.5248-4.5248 4.5248-4.5248-2.2624-2.2624-4.5248 4.5248-4.5248-4.5248-2.2624 2.2624 4.5248 4.5248-4.5248 4.5248z" style="fill:#f00"/>
</svg>
